<svg width="297" height="63" viewBox="0 0 297 63" fill="none" xmlns="http://www.w3.org/2000/svg">
<path fill-rule="evenodd" clip-rule="evenodd" d="M11.6925 55.9813C4.56037 50.2088 0 41.3834 0 31.5012C0 14.1153 14.1154 0 31.5012 0C41.22 0 49.9168 4.41089 55.6943 11.3404L31.5012 31.5012L55.6943 51.662C49.9485 58.5534 41.3156 62.9536 31.6602 63C30.9548 57.1554 25.9713 52.6214 19.9373 52.6214C16.7302 52.6214 13.8199 53.9023 11.6925 55.9813Z" fill="#FC9A3F"/>
<path d="M31.5009 51.1894C42.3744 51.1894 51.1891 42.3747 51.1891 31.5012C51.1891 20.6278 42.3744 11.8131 31.5009 11.8131C20.6275 11.8131 11.8128 20.6278 11.8128 31.5012C11.8128 42.3747 20.6275 51.1894 31.5009 51.1894Z" fill="#F2F2F3" stroke="#202029" stroke-width="1.25936" stroke-miterlimit="1.5" stroke-linecap="round" stroke-linejoin="round"/>
<path fill-rule="evenodd" clip-rule="evenodd" d="M23.0254 18.2317C25.4717 16.6597 28.381 15.7506 31.5009 15.7506C40.1938 15.7506 47.2515 22.8083 47.2515 31.5012C47.2515 40.1942 40.1938 47.2517 31.5009 47.2517C22.808 47.2517 15.7503 40.1942 15.7503 31.5012C15.7503 29.92 15.9839 28.3928 16.421 26.9534C17.2384 27.4431 18.1947 27.7211 19.2154 27.7211C22.258 27.7211 24.7282 25.2509 24.7282 22.2084C24.7282 20.6448 24.0758 19.2324 23.0254 18.2317Z" fill="#202029" stroke="black" stroke-width="0.0015692" stroke-miterlimit="1.5" stroke-linecap="round" stroke-linejoin="round"/>
<path d="M29.041 30.3523C29.6835 30.4656 30.2962 30.0366 30.4095 29.3941C30.5228 28.7516 30.0938 28.1389 29.4513 28.0256C28.8088 27.9123 28.1961 28.3413 28.0828 28.9838C27.9695 29.6263 28.3985 30.239 29.041 30.3523Z" fill="#F2F2F3" stroke="black" stroke-width="0.00157412" stroke-miterlimit="1.5" stroke-linecap="round" stroke-linejoin="round"/>
<path d="M58.6938 24.48H64.9338V46H58.6938V24.48ZM61.8138 21.48C60.6672 21.48 59.7338 21.1467 59.0138 20.48C58.2938 19.8133 57.9338 18.9867 57.9338 18C57.9338 17.0133 58.2938 16.1867 59.0138 15.52C59.7338 14.8533 60.6672 14.52 61.8138 14.52C62.9605 14.52 63.8938 14.84 64.6138 15.48C65.3338 16.12 65.6938 16.92 65.6938 17.88C65.6938 18.92 65.3338 19.7867 64.6138 20.48C63.8938 21.1467 62.9605 21.48 61.8138 21.48ZM85.0051 24.16C87.6718 24.16 89.8184 24.96 91.4451 26.56C93.0984 28.16 93.9251 30.5333 93.9251 33.68V46H87.6851V34.64C87.6851 32.9333 87.3118 31.6667 86.5651 30.84C85.8184 29.9867 84.7384 29.56 83.3251 29.56C81.7518 29.56 80.4984 30.0533 79.5651 31.04C78.6318 32 78.1651 33.44 78.1651 35.36V46H71.9251V24.48H77.8851V27C78.7118 26.0933 79.7384 25.4 80.9651 24.92C82.1918 24.4133 83.5384 24.16 85.0051 24.16ZM122.096 35.32C122.096 35.4 122.056 35.96 121.976 37H105.696C105.989 38.3333 106.682 39.3867 107.776 40.16C108.869 40.9333 110.229 41.32 111.856 41.32C112.976 41.32 113.962 41.16 114.816 40.84C115.696 40.4933 116.509 39.96 117.256 39.24L120.576 42.84C118.549 45.16 115.589 46.32 111.696 46.32C109.269 46.32 107.122 45.8533 105.256 44.92C103.389 43.96 101.949 42.64 100.936 40.96C99.9224 39.28 99.4157 37.3733 99.4157 35.24C99.4157 33.1333 99.909 31.24 100.896 29.56C101.909 27.8533 103.282 26.5333 105.016 25.6C106.776 24.64 108.736 24.16 110.896 24.16C113.002 24.16 114.909 24.6133 116.616 25.52C118.322 26.4267 119.656 27.7333 120.616 29.44C121.602 31.12 122.096 33.08 122.096 35.32ZM110.936 28.88C109.522 28.88 108.336 29.28 107.376 30.08C106.416 30.88 105.829 31.9733 105.616 33.36H116.216C116.002 32 115.416 30.92 114.456 30.12C113.496 29.2933 112.322 28.88 110.936 28.88ZM112.536 15.96H119.256L112.016 21.72H107.136L112.536 15.96ZM154.029 18L141.909 46H135.509L123.429 18H130.429L138.949 38L147.589 18H154.029ZM165.765 46.32C163.498 46.32 161.458 45.8533 159.645 44.92C157.858 43.96 156.458 42.64 155.445 40.96C154.432 39.28 153.925 37.3733 153.925 35.24C153.925 33.1067 154.432 31.2 155.445 29.52C156.458 27.84 157.858 26.5333 159.645 25.6C161.458 24.64 163.498 24.16 165.765 24.16C168.032 24.16 170.058 24.64 171.845 25.6C173.632 26.5333 175.032 27.84 176.045 29.52C177.058 31.2 177.565 33.1067 177.565 35.24C177.565 37.3733 177.058 39.28 176.045 40.96C175.032 42.64 173.632 43.96 171.845 44.92C170.058 45.8533 168.032 46.32 165.765 46.32ZM165.765 41.2C167.365 41.2 168.672 40.6667 169.685 39.6C170.725 38.5067 171.245 37.0533 171.245 35.24C171.245 33.4267 170.725 31.9867 169.685 30.92C168.672 29.8267 167.365 29.28 165.765 29.28C164.165 29.28 162.845 29.8267 161.805 30.92C160.765 31.9867 160.245 33.4267 160.245 35.24C160.245 37.0533 160.765 38.5067 161.805 39.6C162.845 40.6667 164.165 41.2 165.765 41.2ZM188.896 27.32C189.643 26.28 190.643 25.4933 191.896 24.96C193.176 24.4267 194.643 24.16 196.296 24.16V29.92C195.603 29.8667 195.136 29.84 194.896 29.84C193.109 29.84 191.709 30.3467 190.696 31.36C189.683 32.3467 189.176 33.84 189.176 35.84V46H182.936V24.48H188.896V27.32ZM209.769 24.16C213.102 24.16 215.662 24.96 217.449 26.56C219.236 28.1333 220.129 30.52 220.129 33.72V46H214.289V43.32C213.116 45.32 210.929 46.32 207.729 46.32C206.076 46.32 204.636 46.04 203.409 45.48C202.209 44.92 201.289 44.1467 200.649 43.16C200.009 42.1733 199.689 41.0533 199.689 39.8C199.689 37.8 200.436 36.2267 201.929 35.08C203.449 33.9333 205.782 33.36 208.929 33.36H213.889C213.889 32 213.476 30.96 212.649 30.24C211.822 29.4933 210.582 29.12 208.929 29.12C207.782 29.12 206.649 29.3067 205.529 29.68C204.436 30.0267 203.502 30.5067 202.729 31.12L200.489 26.76C201.662 25.9333 203.062 25.2933 204.689 24.84C206.342 24.3867 208.036 24.16 209.769 24.16ZM209.289 42.12C210.356 42.12 211.302 41.88 212.129 41.4C212.956 40.8933 213.542 40.16 213.889 39.2V37H209.609C207.049 37 205.769 37.84 205.769 39.52C205.769 40.32 206.076 40.96 206.689 41.44C207.329 41.8933 208.196 42.12 209.289 42.12ZM237.611 46.32C235.318 46.32 233.251 45.8533 231.411 44.92C229.598 43.96 228.171 42.64 227.131 40.96C226.118 39.28 225.611 37.3733 225.611 35.24C225.611 33.1067 226.118 31.2 227.131 29.52C228.171 27.84 229.598 26.5333 231.411 25.6C233.251 24.64 235.318 24.16 237.611 24.16C239.878 24.16 241.851 24.64 243.531 25.6C245.238 26.5333 246.478 27.88 247.251 29.64L242.411 32.24C241.291 30.2667 239.678 29.28 237.571 29.28C235.944 29.28 234.598 29.8133 233.531 30.88C232.464 31.9467 231.931 33.4 231.931 35.24C231.931 37.08 232.464 38.5333 233.531 39.6C234.598 40.6667 235.944 41.2 237.571 41.2C239.704 41.2 241.318 40.2133 242.411 38.24L247.251 40.88C246.478 42.5867 245.238 43.92 243.531 44.88C241.851 45.84 239.878 46.32 237.611 46.32ZM272.85 35.32C272.85 35.4 272.81 35.96 272.73 37H256.45C256.744 38.3333 257.437 39.3867 258.53 40.16C259.624 40.9333 260.984 41.32 262.61 41.32C263.73 41.32 264.717 41.16 265.57 40.84C266.45 40.4933 267.264 39.96 268.01 39.24L271.33 42.84C269.304 45.16 266.344 46.32 262.45 46.32C260.024 46.32 257.877 45.8533 256.01 44.92C254.144 43.96 252.704 42.64 251.69 40.96C250.677 39.28 250.17 37.3733 250.17 35.24C250.17 33.1333 250.664 31.24 251.65 29.56C252.664 27.8533 254.037 26.5333 255.77 25.6C257.53 24.64 259.49 24.16 261.65 24.16C263.757 24.16 265.664 24.6133 267.37 25.52C269.077 26.4267 270.41 27.7333 271.37 29.44C272.357 31.12 272.85 33.08 272.85 35.32ZM261.69 28.88C260.277 28.88 259.09 29.28 258.13 30.08C257.17 30.88 256.584 31.9733 256.37 33.36H266.97C266.757 32 266.17 30.92 265.21 30.12C264.25 29.2933 263.077 28.88 261.69 28.88ZM285.445 46.32C283.658 46.32 281.911 46.1067 280.205 45.68C278.498 45.2267 277.138 44.6667 276.125 44L278.205 39.52C279.165 40.1333 280.325 40.64 281.685 41.04C283.045 41.4133 284.378 41.6 285.685 41.6C288.325 41.6 289.645 40.9467 289.645 39.64C289.645 39.0267 289.285 38.5867 288.565 38.32C287.845 38.0533 286.738 37.8267 285.245 37.64C283.485 37.3733 282.031 37.0667 280.885 36.72C279.738 36.3733 278.738 35.76 277.885 34.88C277.058 34 276.645 32.7467 276.645 31.12C276.645 29.76 277.031 28.56 277.805 27.52C278.605 26.4533 279.751 25.6267 281.245 25.04C282.765 24.4533 284.551 24.16 286.605 24.16C288.125 24.16 289.631 24.3333 291.125 24.68C292.645 25 293.898 25.4533 294.885 26.04L292.805 30.48C290.911 29.4133 288.845 28.88 286.605 28.88C285.271 28.88 284.271 29.0667 283.605 29.44C282.938 29.8133 282.605 30.2933 282.605 30.88C282.605 31.5467 282.965 32.0133 283.685 32.28C284.405 32.5467 285.551 32.8 287.125 33.04C288.885 33.3333 290.325 33.6533 291.445 34C292.565 34.32 293.538 34.92 294.365 35.8C295.191 36.68 295.605 37.9067 295.605 39.48C295.605 40.8133 295.205 42 294.405 43.04C293.605 44.08 292.431 44.8933 290.885 45.48C289.365 46.04 287.551 46.32 285.445 46.32Z" fill="#FCFCFC"/>
</svg>
