<svg width="251" height="49" viewBox="0 0 251 49" fill="none" xmlns="http://www.w3.org/2000/svg">
<path d="M35.6926 48.3026H40.2113L44.0523 44.4729C44.9561 43.5718 44.9561 42.2201 44.0523 41.319L39.5335 36.8135C38.6298 35.9124 37.2742 35.9124 36.3704 36.8135L31.8516 41.319C30.9479 42.2201 30.9479 43.5718 31.8516 44.4729L35.6926 48.3026Z" fill="#FCC195"/>
<path d="M22.8141 23.2969L18.2953 27.8024C17.3916 28.7035 16.036 28.7035 15.1322 27.8024L14.0025 26.676C13.0988 25.7749 13.0988 24.4232 14.0025 23.5221L18.5213 19.0166C19.425 18.1155 20.7807 18.1155 21.6844 19.0166L22.8141 20.143C23.4919 21.0441 23.4919 22.621 22.8141 23.2969Z" fill="#A68267"/>
<path d="M51.0563 16.3133L28.9144 38.3904C28.0106 39.2915 26.655 39.2915 25.7513 38.3904L21.2325 33.8849C20.3287 32.9838 20.3287 31.6321 21.2325 30.731L43.3744 8.65383C44.2782 7.75272 45.6338 7.75272 46.5376 8.65383L51.0563 13.1594C51.9601 14.0605 51.9601 15.4121 51.0563 16.3133Z" fill="#FCC195"/>
<path d="M52.8636 35.4618L48.3448 39.9674C47.4411 40.8685 46.0854 40.8685 45.1817 39.9674L40.6629 35.4618C39.7592 34.5607 39.7592 33.2091 40.6629 32.308L45.1817 27.8024C46.0854 26.9013 47.4411 26.9013 48.3448 27.8024L52.8636 32.308C53.7673 33.2091 53.7673 34.786 52.8636 35.4618Z" fill="#A68267"/>
<path d="M61.6753 26.676L57.1566 31.1816C56.2528 32.0827 54.8972 32.0827 53.9935 31.1816L49.4747 26.676C48.5709 25.7749 48.5709 24.4232 49.4747 23.5221L53.9935 19.0166C54.8972 18.1155 56.2528 18.1155 57.1566 19.0166L61.6753 23.5221C62.5791 24.6485 62.5791 26.0002 61.6753 26.676Z" fill="#FCC195"/>
<path d="M29.8183 48.3023L7.4504 25.9998C6.99852 25.5493 6.99852 24.6482 7.4504 24.1976L29.8183 1.89517H23.492L1.57601 23.7471C0.672255 24.6482 0.672255 25.7746 1.57601 26.6757L23.492 48.5276H29.8183V48.3023Z" fill="#262626"/>
<path d="M51.7342 1.67029H45.408L67.7758 23.9727C68.2277 24.4233 68.2277 25.3244 67.7758 25.775L45.408 48.0774H51.7342L73.6502 26.2255C74.554 25.3244 74.554 24.198 73.6502 23.2969L51.7342 1.67029Z" fill="#262626"/>
<path d="M109.167 4.78891L104.875 18.9814H101.034L98.3223 9.06918L95.6111 18.9814H91.7701L87.4773 4.78891H91.0923L93.5776 15.6022L96.2889 4.78891H100.13L102.841 15.6022L105.326 4.78891H109.167Z" fill="#262626"/>
<path d="M124.305 13.1242H113.912C113.912 14.2506 114.364 14.9264 115.042 15.6022C115.719 16.2781 116.397 16.5033 117.301 16.5033C118.657 16.5033 119.56 15.8275 120.238 14.7011H124.079C123.627 16.0528 122.949 17.1792 121.594 18.0803C120.464 18.9814 118.883 19.4319 117.301 19.4319C115.945 19.4319 114.59 19.2067 113.686 18.5308C112.556 17.855 111.653 16.9539 111.201 16.0528C110.749 15.1517 110.297 13.5747 110.297 12.2231C110.297 10.6461 110.523 9.51974 111.201 8.39335C111.878 7.26696 112.556 6.36585 113.686 5.9153C114.816 5.23947 115.945 5.01419 117.527 5.01419C118.883 5.01419 120.012 5.23947 121.142 5.9153C122.272 6.59113 122.949 7.26696 123.627 8.39335C124.305 9.51974 124.531 10.6461 124.531 11.9978C124.305 12.2231 124.305 12.6736 124.305 13.1242ZM120.69 10.6461C120.69 9.74501 120.238 9.06918 119.786 8.39335C119.108 7.9428 118.431 7.49224 117.301 7.49224C116.397 7.49224 115.719 7.71752 115.042 8.39335C114.364 8.84391 114.138 9.74501 113.912 10.6461H120.69Z" fill="#262626"/>
<path d="M132.439 5.23942C133.343 4.78887 134.246 4.56359 135.15 4.56359C136.28 4.56359 137.41 4.78887 138.539 5.4647C139.443 6.14053 140.347 6.81636 140.799 7.94275C141.476 9.06914 141.702 10.4208 141.702 11.7725C141.702 13.1241 141.476 14.4758 140.799 15.6022C140.121 16.7286 139.443 17.6297 138.539 18.3055C137.635 18.9813 136.506 19.2066 135.15 19.2066C134.02 19.2066 133.117 18.9813 132.439 18.5308C131.761 18.0802 131.083 17.6297 130.405 16.9538V18.9813H127.016V0.0580444H130.631V7.04164C131.083 6.36581 131.761 5.68998 132.439 5.23942ZM137.635 9.74497C137.184 9.06914 136.732 8.61858 136.28 8.39331C135.602 8.16803 135.15 7.94275 134.472 7.94275C133.794 7.94275 133.117 8.16803 132.665 8.39331C131.987 8.61858 131.535 9.29442 131.309 9.74497C130.857 10.4208 130.857 11.0966 130.857 11.9977C130.857 12.8989 131.083 13.5747 131.309 14.2505C131.535 14.9263 131.987 15.3769 132.439 15.6022C133.117 15.8275 133.569 16.0527 134.246 16.0527C134.924 16.0527 135.602 15.8275 136.054 15.6022C136.506 15.3769 137.184 14.7011 137.41 14.0252C137.635 13.3494 137.861 12.6736 137.861 11.7725C138.087 11.0966 138.087 10.4208 137.635 9.74497Z" fill="#262626"/>
<path d="M100.13 27.3166V30.4704H91.996V35.4265H98.0963V38.5804H91.996V46.6904H88.155V27.3166H100.13Z" fill="#262626"/>
<path d="M112.782 46.6904L108.49 39.031H106.682V46.6904H102.841V27.3166H110.071C111.653 27.3166 112.782 27.5418 113.912 28.2177C115.042 28.6682 115.72 29.5693 116.397 30.2452C116.849 31.1463 117.301 32.0474 117.301 33.1738C117.301 34.5254 116.849 35.6518 116.171 36.5529C115.494 37.454 114.364 38.3552 112.782 38.5804L117.527 46.4651H112.782V46.6904ZM106.682 36.1024H109.845C110.975 36.1024 111.653 35.8771 112.105 35.4265C112.556 34.976 112.782 34.3002 112.782 33.399C112.782 32.4979 112.556 31.8221 112.105 31.3716C111.653 30.921 110.749 30.6957 109.845 30.6957H106.682V36.1024Z" fill="#262626"/>
<path d="M124.531 45.564C122.949 44.6629 121.82 43.5365 120.916 41.9596C120.012 40.3827 119.56 38.8057 119.56 36.7782C119.56 34.976 120.012 33.1738 120.916 31.5968C121.82 30.0199 122.949 28.8935 124.531 27.9924C126.113 27.0913 127.694 26.6407 129.502 26.6407C131.309 26.6407 133.117 27.0913 134.472 27.9924C136.054 28.8935 137.183 30.0199 138.087 31.5968C138.991 33.1738 139.443 34.7507 139.443 36.7782C139.443 38.5804 138.991 40.3827 138.087 41.9596C137.183 43.5365 136.054 44.6629 134.472 45.564C132.891 46.4652 131.309 46.9157 129.502 46.9157C127.694 46.9157 126.113 46.4652 124.531 45.564ZM132.665 42.6354C133.568 42.1849 134.246 41.2838 134.698 40.3827C135.15 39.4816 135.376 38.3552 135.376 37.0035C135.376 35.6518 135.15 34.5255 134.698 33.6243C134.246 32.7232 133.568 31.8221 132.665 31.3716C131.761 30.921 130.631 30.6957 129.502 30.6957C128.372 30.6957 127.242 30.921 126.338 31.3716C125.435 31.8221 124.757 32.7232 124.305 33.6243C123.853 34.5255 123.627 35.6518 123.627 37.0035C123.627 38.3552 123.853 39.4816 124.305 40.3827C124.757 41.2838 125.435 42.1849 126.338 42.6354C127.242 43.086 128.372 43.5365 129.502 43.5365C130.631 43.5365 131.761 43.086 132.665 42.6354Z" fill="#262626"/>
<path d="M159.099 46.6904H155.258L146.447 33.399V46.6904H142.606V27.3166H146.447L155.258 40.6079V27.3166H159.099V46.6904Z" fill="#262626"/>
<path d="M176.271 27.3166V30.4704H171.074V46.6904H167.233V30.4704H162.037V27.3166H176.271Z" fill="#262626"/>
<path d="M201.124 30.2445V35.2007H207.676V38.3545H201.124V43.5359H208.58V46.6898H197.057V27.0907H208.58V30.2445H201.124Z" fill="#262626"/>
<path d="M229.141 46.6898H225.3L216.262 33.1732V46.6898H212.421V27.0907H216.262L225.3 40.6073V27.0907H229.141V46.6898Z" fill="#262626"/>
<path d="M245.408 28.2174C246.989 29.1185 248.119 30.2449 249.023 31.5965C249.927 32.9482 250.378 34.7504 250.378 36.7779C250.378 38.8054 249.927 40.3824 249.023 41.9593C248.119 43.5362 246.989 44.6626 245.408 45.3385C243.826 46.0143 242.019 46.4649 239.985 46.4649H233.207V26.8657H239.985C241.793 27.091 243.826 27.5416 245.408 28.2174ZM244.504 41.734C245.634 40.6076 246.086 39.0307 246.086 37.0032C246.086 34.9757 245.408 33.3988 244.504 32.2724C243.6 31.146 241.793 30.4702 239.759 30.4702H237.048V43.5362H239.759C241.793 43.311 243.374 42.8604 244.504 41.734Z" fill="#262626"/>
<path d="M185.986 42.8607C188.607 42.8607 190.731 40.7427 190.731 38.1299C190.731 35.5171 188.607 33.3991 185.986 33.3991C183.366 33.3991 181.241 35.5171 181.241 38.1299C181.241 40.7427 183.366 42.8607 185.986 42.8607Z" fill="#FCC195"/>
</svg>
